<?xml version="1.0" encoding="utf-8" standalone="no"?>
<!DOCTYPE svg PUBLIC "-//W3C//DTD SVG 1.1//EN"
  "http://www.w3.org/Graphics/SVG/1.1/DTD/svg11.dtd">
<svg xmlns:xlink="http://www.w3.org/1999/xlink" width="410.58pt" height="180.72pt" viewBox="0 0 410.58 180.72" xmlns="http://www.w3.org/2000/svg" version="1.1">
 <metadata>
  <rdf:RDF xmlns:dc="http://purl.org/dc/elements/1.1/" xmlns:cc="http://creativecommons.org/ns#" xmlns:rdf="http://www.w3.org/1999/02/22-rdf-syntax-ns#">
   <cc:Work>
    <dc:type rdf:resource="http://purl.org/dc/dcmitype/StillImage"/>
    <dc:format>image/svg+xml</dc:format>
    <dc:creator>
     <cc:Agent>
      <dc:title>Omni-Context evidence-linked figure generator</dc:title>
     </cc:Agent>
    </dc:creator>
   </cc:Work>
  </rdf:RDF>
 </metadata>
 <defs>
  <style type="text/css">*{stroke-linejoin: round; stroke-linecap: butt}</style>
 </defs>
 <g id="figure_1">
  <g id="patch_1">
   <path d="M 0 180.72 
L 410.58 180.72 
L 410.58 0 
L 0 0 
z
" style="fill: #ffffff"/>
  </g>
  <g id="axes_1">
   <g id="patch_2">
    <path d="M 16.564255 38.2464 
L 62.6652 38.2464 
Q 63.745691 38.2464 63.745691 37.4148 
L 63.745691 22.7232 
Q 63.745691 21.8916 62.6652 21.8916 
L 16.564255 21.8916 
Q 15.483764 21.8916 15.483764 22.7232 
L 15.483764 37.4148 
Q 15.483764 38.2464 16.564255 38.2464 
z
" clip-path="url(#p940584c5c3)" style="fill: #ffffff; stroke: #000000; stroke-linejoin: miter"/>
   </g>
   <g id="patch_3">
    <path d="M 64.14428 31.726761 
Q 81.033886 56.750005 97.423107 81.03189 
" clip-path="url(#p940584c5c3)" style="fill: none; stroke: #000000; stroke-width: 0.8; stroke-linecap: round"/>
    <path d="M 96.959057 77.484404 
L 97.423107 81.03189 
L 94.306688 79.274638 
z
" clip-path="url(#p940584c5c3)" style="stroke: #000000; stroke-width: 0.8; stroke-linecap: round"/>
   </g>
   <g id="patch_4">
    <path d="M 16.564255 59.0364 
L 62.6652 59.0364 
Q 63.745691 59.0364 63.745691 58.2048 
L 63.745691 43.5132 
Q 63.745691 42.6816 62.6652 42.6816 
L 16.564255 42.6816 
Q 15.483764 42.6816 15.483764 43.5132 
L 15.483764 58.2048 
Q 15.483764 59.0364 16.564255 59.0364 
z
" clip-path="url(#p940584c5c3)" style="fill: #ffffff; stroke: #000000; stroke-linejoin: miter"/>
   </g>
   <g id="patch_5">
    <path d="M 64.509192 52.200884 
Q 81.034604 67.145457 96.896626 81.490101 
" clip-path="url(#p940584c5c3)" style="fill: none; stroke: #000000; stroke-width: 0.8; stroke-linecap: round"/>
    <path d="M 95.596397 78.157024 
L 96.896626 81.490101 
L 93.450027 80.530438 
z
" clip-path="url(#p940584c5c3)" style="stroke: #000000; stroke-width: 0.8; stroke-linecap: round"/>
   </g>
   <g id="patch_6">
    <path d="M 16.564255 79.8264 
L 62.6652 79.8264 
Q 63.745691 79.8264 63.745691 78.9948 
L 63.745691 64.3032 
Q 63.745691 63.4716 62.6652 63.4716 
L 16.564255 63.4716 
Q 15.483764 63.4716 15.483764 64.3032 
L 15.483764 78.9948 
Q 15.483764 79.8264 16.564255 79.8264 
z
" clip-path="url(#p940584c5c3)" style="fill: #ffffff; stroke: #000000; stroke-linejoin: miter"/>
   </g>
   <g id="patch_7">
    <path d="M 64.929061 72.271702 
Q 81.033887 77.539612 96.288609 82.529452 
" clip-path="url(#p940584c5c3)" style="fill: none; stroke: #000000; stroke-width: 0.8; stroke-linecap: round"/>
    <path d="M 93.744612 80.013885 
L 96.288609 82.529452 
L 92.749757 83.05531 
z
" clip-path="url(#p940584c5c3)" style="stroke: #000000; stroke-width: 0.8; stroke-linecap: round"/>
   </g>
   <g id="patch_8">
    <path d="M 16.564255 100.6164 
L 62.6652 100.6164 
Q 63.745691 100.6164 63.745691 99.7848 
L 63.745691 85.0932 
Q 63.745691 84.2616 62.6652 84.2616 
L 16.564255 84.2616 
Q 15.483764 84.2616 15.483764 85.0932 
L 15.483764 99.7848 
Q 15.483764 100.6164 16.564255 100.6164 
z
" clip-path="url(#p940584c5c3)" style="fill: #ffffff; stroke: #000000; stroke-linejoin: miter"/>
   </g>
   <g id="patch_9">
    <path d="M 64.964233 91.954018 
Q 81.031655 87.934973 96.231383 84.132969 
" clip-path="url(#p940584c5c3)" style="fill: none; stroke: #000000; stroke-width: 0.8; stroke-linecap: round"/>
    <path d="M 92.738771 83.357303 
L 96.231383 84.132969 
L 93.515283 86.46166 
z
" clip-path="url(#p940584c5c3)" style="stroke: #000000; stroke-width: 0.8; stroke-linecap: round"/>
   </g>
   <g id="patch_10">
    <path d="M 16.564255 121.4064 
L 62.6652 121.4064 
Q 63.745691 121.4064 63.745691 120.5748 
L 63.745691 105.8832 
Q 63.745691 105.0516 62.6652 105.0516 
L 16.564255 105.0516 
Q 15.483764 105.0516 15.483764 105.8832 
L 15.483764 120.5748 
Q 15.483764 121.4064 16.564255 121.4064 
z
" clip-path="url(#p940584c5c3)" style="fill: #ffffff; stroke: #000000; stroke-linejoin: miter"/>
   </g>
   <g id="patch_11">
    <path d="M 64.566347 111.954031 
Q 81.032844 98.33008 96.810208 85.276301 
" clip-path="url(#p940584c5c3)" style="fill: none; stroke: #000000; stroke-width: 0.8; stroke-linecap: round"/>
    <path d="M 93.324736 86.083448 
L 96.810208 85.276301 
L 95.364642 88.548967 
z
" clip-path="url(#p940584c5c3)" style="stroke: #000000; stroke-width: 0.8; stroke-linecap: round"/>
   </g>
   <g id="patch_12">
    <path d="M 99.401891 95.0724 
L 143.702018 95.0724 
Q 144.782509 95.0724 144.782509 94.2408 
L 144.782509 72.6192 
Q 144.782509 71.7876 143.702018 71.7876 
L 99.401891 71.7876 
Q 98.3214 71.7876 98.3214 72.6192 
L 98.3214 94.2408 
Q 98.3214 95.0724 99.401891 95.0724 
z
" clip-path="url(#p940584c5c3)" style="fill: #ffffff; stroke: #000000; stroke-linejoin: miter"/>
   </g>
   <g id="patch_13">
    <path d="M 166.032164 95.0724 
L 210.332291 95.0724 
Q 211.412782 95.0724 211.412782 94.2408 
L 211.412782 72.6192 
Q 211.412782 71.7876 210.332291 71.7876 
L 166.032164 71.7876 
Q 164.951673 71.7876 164.951673 72.6192 
L 164.951673 94.2408 
Q 164.951673 95.0724 166.032164 95.0724 
z
" clip-path="url(#p940584c5c3)" style="fill: #ffffff; stroke: #000000; stroke-linejoin: miter"/>
   </g>
   <g id="patch_14">
    <path d="M 232.662436 95.0724 
L 276.962564 95.0724 
Q 278.043055 95.0724 278.043055 94.2408 
L 278.043055 72.6192 
Q 278.043055 71.7876 276.962564 71.7876 
L 232.662436 71.7876 
Q 231.581945 71.7876 231.581945 72.6192 
L 231.581945 94.2408 
Q 231.581945 95.0724 232.662436 95.0724 
z
" clip-path="url(#p940584c5c3)" style="fill: #ffffff; stroke: #000000; stroke-linejoin: miter"/>
   </g>
   <g id="patch_15">
    <path d="M 290.288618 95.0724 
L 334.588745 95.0724 
Q 335.669236 95.0724 335.669236 94.2408 
L 335.669236 72.6192 
Q 335.669236 71.7876 334.588745 71.7876 
L 290.288618 71.7876 
Q 289.208127 71.7876 289.208127 72.6192 
L 289.208127 94.2408 
Q 289.208127 95.0724 290.288618 95.0724 
z
" clip-path="url(#p940584c5c3)" style="fill: #ffffff; stroke: #000000; stroke-linejoin: miter"/>
   </g>
   <g id="patch_16">
    <path d="M 355.118073 95.0724 
L 399.4182 95.0724 
Q 400.498691 95.0724 400.498691 94.2408 
L 400.498691 72.6192 
Q 400.498691 71.7876 399.4182 71.7876 
L 355.118073 71.7876 
Q 354.037582 71.7876 354.037582 72.6192 
L 354.037582 94.2408 
Q 354.037582 95.0724 355.118073 95.0724 
z
" clip-path="url(#p940584c5c3)" style="fill: #ffffff; stroke: #000000; stroke-linejoin: miter"/>
   </g>
   <g id="patch_17">
    <path d="M 146.064361 83.43 
Q 154.870087 83.43 162.781385 83.43 
" clip-path="url(#p940584c5c3)" style="fill: none; stroke: #000000; stroke-width: 0.8; stroke-linecap: round"/>
    <path d="M 159.581385 81.83 
L 162.781385 83.43 
L 159.581385 85.03 
z
" clip-path="url(#p940584c5c3)" style="stroke: #000000; stroke-width: 0.8; stroke-linecap: round"/>
   </g>
   <g id="patch_18">
    <path d="M 212.694634 83.43 
Q 221.500359 83.43 229.411658 83.43 
" clip-path="url(#p940584c5c3)" style="fill: none; stroke: #000000; stroke-width: 0.8; stroke-linecap: round"/>
    <path d="M 226.211658 81.83 
L 229.411658 83.43 
L 226.211658 85.03 
z
" clip-path="url(#p940584c5c3)" style="stroke: #000000; stroke-width: 0.8; stroke-linecap: round"/>
   </g>
   <g id="patch_19">
    <path d="M 279.32007 83.43 
Q 283.623252 83.43 287.032006 83.43 
" clip-path="url(#p940584c5c3)" style="fill: none; stroke: #000000; stroke-width: 0.8; stroke-linecap: round"/>
    <path d="M 283.832006 81.83 
L 287.032006 83.43 
L 283.832006 85.03 
z
" clip-path="url(#p940584c5c3)" style="stroke: #000000; stroke-width: 0.8; stroke-linecap: round"/>
   </g>
   <g id="patch_20">
    <path d="M 336.946252 83.43 
Q 344.854089 83.43 351.867498 83.43 
" clip-path="url(#p940584c5c3)" style="fill: none; stroke: #000000; stroke-width: 0.8; stroke-linecap: round"/>
    <path d="M 348.667498 81.83 
L 351.867498 83.43 
L 348.667498 85.03 
z
" clip-path="url(#p940584c5c3)" style="stroke: #000000; stroke-width: 0.8; stroke-linecap: round"/>
   </g>
   <g id="text_1">
    <text style="font-size: 7px; font-family: 'Arial', 'Liberation Sans', 'DejaVu Sans', sans-serif; text-anchor: middle" x="39.614727" y="31.878609" transform="rotate(-0 39.614727 31.878609)">Text</text>
   </g>
   <g id="text_2">
    <text style="font-size: 7px; font-family: 'Arial', 'Liberation Sans', 'DejaVu Sans', sans-serif; text-anchor: middle" x="39.614727" y="52.668609" transform="rotate(-0 39.614727 52.668609)">Vector</text>
   </g>
   <g id="text_3">
    <text style="font-size: 7px; font-family: 'Arial', 'Liberation Sans', 'DejaVu Sans', sans-serif; text-anchor: middle" x="39.614727" y="73.458609" transform="rotate(-0 39.614727 73.458609)">Assertion</text>
   </g>
   <g id="text_4">
    <text style="font-size: 7px; font-family: 'Arial', 'Liberation Sans', 'DejaVu Sans', sans-serif; text-anchor: middle" x="39.614727" y="94.291266" transform="rotate(-0 39.614727 94.291266)">Graph</text>
   </g>
   <g id="text_5">
    <text style="font-size: 7px; font-family: 'Arial', 'Liberation Sans', 'DejaVu Sans', sans-serif" transform="translate(27.941134 111.338344)">Subject</text>
    <text style="font-size: 7px; font-family: 'Arial', 'Liberation Sans', 'DejaVu Sans', sans-serif" transform="translate(21.912384 118.824188)">Attachment</text>
   </g>
   <g id="text_6">
    <text style="font-size: 7px; font-family: 'Arial', 'Liberation Sans', 'DejaVu Sans', sans-serif" transform="translate(105.59633 81.537703)">Candidate</text>
    <text style="font-size: 7px; font-family: 'Arial', 'Liberation Sans', 'DejaVu Sans', sans-serif" transform="translate(114.547033 88.941516)">Pool</text>
   </g>
   <g id="text_7">
    <text style="font-size: 7px; font-family: 'Arial', 'Liberation Sans', 'DejaVu Sans', sans-serif" transform="translate(166.395821 81.537703)">Source-aware</text>
    <text style="font-size: 7px; font-family: 'Arial', 'Liberation Sans', 'DejaVu Sans', sans-serif" transform="translate(177.677852 88.941516)">Fusion</text>
   </g>
   <g id="text_8">
    <text style="font-size: 7px; font-family: 'Arial', 'Liberation Sans', 'DejaVu Sans', sans-serif; text-anchor: middle" x="254.8125" y="85.239609" transform="rotate(-0 254.8125 85.239609)">Final-20</text>
   </g>
   <g id="text_9">
    <text style="font-size: 7px; font-family: 'Arial', 'Liberation Sans', 'DejaVu Sans', sans-serif" transform="translate(298.041104 81.537703)">Evidence</text>
    <text style="font-size: 7px; font-family: 'Arial', 'Liberation Sans', 'DejaVu Sans', sans-serif" transform="translate(299.599697 88.941516)">Selector</text>
   </g>
   <g id="text_10">
    <text style="font-size: 7px; font-family: 'Arial', 'Liberation Sans', 'DejaVu Sans', sans-serif" transform="translate(365.597824 81.525234)">Answer</text>
    <text style="font-size: 7px; font-family: 'Arial', 'Liberation Sans', 'DejaVu Sans', sans-serif" transform="translate(366.569074 88.953984)">Top-10</text>
   </g>
   <g id="patch_21">
    <path d="M 102.544477 133.713912 
Q 111.1786 115.023845 119.437622 97.14575 
" style="fill: none; stroke: #000000; stroke-width: 0.8; stroke-linecap: round"/>
    <path d="M 116.992431 99.100499 
L 119.437622 97.14575 
L 119.534307 100.274751 
" style="fill: none; stroke: #000000; stroke-width: 0.8; stroke-linecap: round"/>
   </g>
   <g id="text_11">
    <g id="patch_22">
     <path d="M 66.305831 154.28085 
L 128.175987 154.28085 
Q 130.275987 154.28085 130.275987 152.18085 
L 130.275987 138.125944 
Q 130.275987 136.025944 128.175987 136.025944 
L 66.305831 136.025944 
Q 64.205831 136.025944 64.205831 138.125944 
L 64.205831 152.18085 
Q 64.205831 154.28085 66.305831 154.28085 
z
" style="fill: #ffffff; stroke-dasharray: 1,1.65; stroke-dashoffset: 0; stroke: #000000; stroke-linejoin: miter"/>
    </g>
    <text style="font-size: 7px; font-family: 'Arial', 'Liberation Sans', 'DejaVu Sans', sans-serif" transform="translate(66.305831 143.303756)">graph/support noise</text>
    <text style="font-size: 7px; font-family: 'Arial', 'Liberation Sans', 'DejaVu Sans', sans-serif" transform="translate(76.619893 150.7896)">displacement</text>
   </g>
   <g id="patch_23">
    <path d="M 187.281818 141.180593 
Q 187.281818 118.850389 187.281818 97.414612 
" style="fill: none; stroke: #000000; stroke-width: 0.8; stroke-linecap: round"/>
    <path d="M 185.881818 100.214612 
L 187.281818 97.414612 
L 188.681818 100.214612 
" style="fill: none; stroke: #000000; stroke-width: 0.8; stroke-linecap: round"/>
   </g>
   <g id="text_12">
    <g id="patch_24">
     <path d="M 155.768693 154.28085 
L 218.794943 154.28085 
Q 220.894943 154.28085 220.894943 152.18085 
L 220.894943 145.779131 
Q 220.894943 143.679131 218.794943 143.679131 
L 155.768693 143.679131 
Q 153.668693 143.679131 153.668693 145.779131 
L 153.668693 152.18085 
Q 153.668693 154.28085 155.768693 154.28085 
z
" style="fill: #ffffff; stroke-dasharray: 1,1.65; stroke-dashoffset: 0; stroke: #000000; stroke-linejoin: miter"/>
    </g>
    <text style="font-size: 7px; font-family: 'Arial', 'Liberation Sans', 'DejaVu Sans', sans-serif; text-anchor: middle" x="187.281818" y="150.7896" transform="rotate(-0 187.281818 150.7896)">source-aware fusion</text>
   </g>
   <g id="patch_25">
    <path d="M 315.703702 133.623685 
Q 313.727004 115.066147 311.845043 97.398005 
" style="fill: none; stroke: #000000; stroke-width: 0.8; stroke-linecap: round"/>
    <path d="M 310.749489 100.33054 
L 311.845043 97.398005 
L 313.533738 100.033969 
" style="fill: none; stroke: #000000; stroke-width: 0.8; stroke-linecap: round"/>
   </g>
   <g id="text_13">
    <g id="patch_26">
     <path d="M 282.50729 154.28085 
L 351.374165 154.28085 
Q 353.474165 154.28085 353.474165 152.18085 
L 353.474165 138.211256 
Q 353.474165 136.111256 351.374165 136.111256 
L 282.50729 136.111256 
Q 280.40729 136.111256 280.40729 138.211256 
L 280.40729 152.18085 
Q 280.40729 154.28085 282.50729 154.28085 
z
" style="fill: #ffffff; stroke-dasharray: 1,1.65; stroke-dashoffset: 0; stroke: #000000; stroke-linejoin: miter"/>
    </g>
    <text style="font-size: 7px; font-family: 'Arial', 'Liberation Sans', 'DejaVu Sans', sans-serif" transform="translate(282.50729 143.303756)">query-aware evidence</text>
    <text style="font-size: 7px; font-family: 'Arial', 'Liberation Sans', 'DejaVu Sans', sans-serif" transform="translate(303.127759 150.7896)">selection</text>
   </g>
   <g id="text_14">
    <text style="font-weight: 700; font-size: 10px; font-family: 'Arial', 'Liberation Sans', 'DejaVu Sans', sans-serif; text-anchor: middle" x="205.29" y="16.902" transform="rotate(-0 205.29 16.902)">Frozen retrieval evidence pipeline</text>
   </g>
   <g id="text_15">
    <text style="font-size: 7px; font-family: 'Arial', 'Liberation Sans', 'DejaVu Sans', sans-serif; text-anchor: middle" x="205.29" y="168.5304" transform="rotate(-0 205.29 168.5304)">Annotations describe the verified Candidate v3.1 fix scope; they are not universal claims.</text>
   </g>
  </g>
 </g>
 <defs>
  <clipPath id="p940584c5c3">
   <rect x="7.2" y="7.2" width="396.18" height="166.32"/>
  </clipPath>
 </defs>
</svg>
